<?xml version="1.0" standalone="no"?>
<!DOCTYPE svg PUBLIC "-//W3C//DTD SVG 20010904//EN"
 "http://www.w3.org/TR/2001/REC-SVG-20010904/DTD/svg10.dtd">
<svg version="1.0" xmlns="http://www.w3.org/2000/svg"
 width="640.000000pt" height="640.000000pt" viewBox="0 0 640.000000 640.000000"
 preserveAspectRatio="xMidYMid meet">
<metadata>
Created by potrace 1.14, written by Peter Selinger 2001-2017
</metadata>
<g transform="translate(0.000000,640.000000) scale(0.100000,-0.100000)"
fill="#000000" stroke="none">
<path d="M0 3200 l0 -3200 3200 0 3200 0 0 3200 0 3200 -3200 0 -3200 0 0
-3200z m3348 1476 c15 -8 39 -27 54 -43 29 -31 47 -83 29 -83 -7 0 -17 -5 -24
-10 -7 -6 -28 -24 -47 -40 -19 -16 -72 -50 -117 -76 -49 -27 -80 -51 -77 -58
3 -6 -10 6 -30 26 -62 65 -68 156 -13 232 40 57 162 85 225 52z m131 -836 c77
-261 152 -518 166 -570 15 -52 30 -99 32 -103 3 -4 24 29 47 75 100 198 284
433 431 550 45 37 47 37 14 6 -20 -20 -39 -43 -42 -52 -4 -9 -12 -15 -18 -14
-7 2 -18 -7 -24 -20 -7 -13 -16 -22 -21 -21 -4 1 -13 -7 -19 -17 -5 -10 -20
-27 -33 -37 -32 -27 -140 -170 -198 -262 -81 -129 -125 -223 -118 -254 17 -77
64 -173 64 -131 0 9 11 24 25 34 15 11 27 33 30 55 4 20 13 48 21 63 8 14 14
38 14 51 0 14 5 29 10 32 6 3 10 18 10 33 0 29 34 81 45 70 4 -3 2 -15 -4 -26
-13 -25 -15 -129 -2 -136 5 -3 12 11 16 32 6 31 9 34 15 17 5 -11 9 -15 9 -10
1 6 6 3 11 -5 10 -15 10 -14 15 52 1 22 15 36 15 15 0 -9 -5 -38 -11 -65 -5
-28 -9 -72 -7 -98 l3 -49 29 60 c98 199 366 515 634 746 56 49 104 89 105 89
2 0 3 -16 3 -35 -1 -24 -5 -34 -13 -30 -7 2 -13 -2 -13 -9 0 -8 -16 -24 -35
-36 -37 -23 -45 -40 -20 -40 8 0 15 -3 15 -7 -1 -18 -17 -31 -35 -30 -14 1
-20 -4 -18 -16 1 -15 -4 -17 -24 -12 -22 5 -25 3 -20 -15 4 -14 -1 -27 -14
-38 -10 -9 -19 -22 -19 -30 0 -8 -7 -11 -19 -7 -15 5 -18 1 -13 -20 3 -17 0
-25 -10 -25 -21 0 -68 -56 -68 -80 0 -11 -3 -19 -7 -19 -23 4 -33 -6 -62 -58
-18 -32 -40 -70 -49 -84 -82 -123 -113 -176 -148 -249 -14 -30 -40 -84 -57
-120 -16 -36 -34 -67 -38 -70 -10 -7 -39 -90 -39 -111 0 -9 -7 -19 -15 -23 -8
-3 -15 -14 -15 -25 0 -11 -4 -23 -10 -26 -5 -3 -10 -14 -10 -25 0 -10 -15 -58
-34 -106 -30 -78 -48 -137 -99 -322 -6 -23 -18 -44 -27 -47 -110 -32 -861 -43
-1092 -16 l-118 13 0 34 c0 18 -4 43 -9 56 -5 13 -15 42 -22 66 -7 23 -18 47
-26 53 -7 6 -13 28 -13 48 0 20 -4 41 -8 47 -5 5 -19 43 -32 84 -13 41 -27 82
-31 90 -15 32 -37 86 -49 120 -36 105 -63 168 -80 192 -11 15 -20 32 -20 37 0
9 -23 62 -51 114 -5 9 -13 25 -18 35 -40 81 -57 110 -75 132 -12 14 -30 44
-41 65 -11 22 -24 45 -30 52 -5 6 -19 23 -30 38 -11 15 -30 38 -42 51 -13 14
-30 38 -38 55 -9 16 -23 33 -32 36 -9 4 -30 22 -46 40 -35 39 -44 37 -28 -8
11 -31 19 -42 69 -93 12 -13 22 -33 22 -45 0 -12 11 -39 24 -60 14 -21 28 -56
32 -77 4 -22 13 -43 20 -49 7 -5 14 -26 15 -45 2 -19 7 -40 12 -47 5 -7 6 -16
3 -21 -3 -6 6 -31 21 -57 24 -43 35 -81 48 -157 2 -15 18 -79 35 -141 16 -63
30 -130 30 -151 0 -21 5 -47 11 -59 7 -11 13 -37 14 -57 1 -19 7 -53 13 -75 6
-22 16 -82 23 -133 7 -55 18 -100 27 -109 13 -13 11 -14 -23 -7 -20 3 -58 12
-84 18 -45 12 -46 13 -53 62 -3 27 -12 108 -18 179 -6 72 -22 195 -36 275 -13
79 -22 153 -18 165 4 16 3 17 -5 5 -6 -8 -11 -10 -11 -4 0 6 -3 27 -6 45 -4
23 -3 30 4 21 6 -9 9 3 9 37 -1 28 -4 51 -9 51 -4 0 -8 18 -8 39 0 22 -5 43
-10 46 -6 3 -7 18 -4 33 4 19 3 23 -4 13 -11 -16 -25 0 -17 21 3 8 -1 27 -9
43 -8 16 -13 32 -11 36 3 4 -2 12 -10 19 -17 14 -21 35 -5 25 6 -3 10 1 10 9
0 9 -5 15 -12 13 -7 -1 -13 3 -14 8 -6 38 -18 75 -25 75 -4 0 -14 12 -22 28
-8 15 -24 45 -36 67 -12 21 -21 45 -21 51 0 7 -7 14 -15 18 -8 3 -15 15 -15
26 0 12 -4 18 -10 15 -5 -3 -10 -2 -10 3 0 5 -9 19 -20 32 -11 13 -20 29 -20
37 0 12 -12 17 -32 14 -4 0 -5 6 -2 14 4 8 -7 28 -25 46 -34 34 -42 62 -13 52
15 -6 15 -5 3 10 -7 9 -17 14 -22 11 -5 -3 -8 0 -7 8 2 7 -4 11 -12 9 -8 -2
-55 -13 -105 -26 l-90 -23 -23 23 c-49 46 -45 134 8 179 90 75 220 16 220
-100 0 -38 4 -45 36 -64 92 -58 283 -233 413 -380 100 -114 197 -249 267 -373
35 -62 68 -119 74 -127 15 -21 4 152 -16 249 -8 40 -12 76 -9 79 2 3 8 -9 11
-27 4 -20 11 -30 19 -27 15 5 25 -56 13 -78 -10 -19 2 -53 12 -36 4 7 13 9 19
6 14 -9 14 -43 1 -51 -6 -4 0 -24 16 -50 20 -35 24 -52 19 -83 -4 -28 -1 -43
10 -52 8 -7 15 -18 15 -24 0 -20 61 -130 87 -158 34 -36 58 -25 109 47 24 34
55 131 48 150 -3 7 -1 16 5 20 14 8 14 25 1 25 -5 0 -10 -7 -10 -15 0 -8 -4
-15 -10 -15 -5 0 -10 10 -10 23 0 12 -16 42 -35 66 -19 24 -35 48 -35 53 0 11
-27 75 -41 98 -5 8 -18 34 -30 57 -11 23 -27 47 -35 54 -8 6 -14 19 -14 29 0
9 -9 25 -20 35 -11 10 -20 24 -20 31 0 7 -11 26 -25 42 -14 17 -25 35 -25 41
0 6 -11 17 -25 23 -19 8 -22 14 -13 20 10 6 9 8 -2 8 -9 0 -21 -5 -26 -10 -7
-7 -10 -4 -9 12 1 16 7 22 19 20 13 -2 15 1 9 11 -14 25 -67 64 -80 60 -20 -7
-15 -19 12 -31 29 -14 33 -39 6 -37 -24 1 -53 24 -46 36 9 14 -6 59 -19 56 -6
-1 -11 11 -11 30 0 26 -2 29 -14 20 -12 -10 -13 -8 -9 10 5 20 4 21 -13 12
-13 -6 -19 -6 -19 1 0 5 5 10 11 10 6 0 3 7 -5 16 -19 18 -21 30 -3 17 278
-214 453 -406 562 -620 20 -39 36 -61 39 -52 3 8 68 232 146 499 78 267 151
516 163 554 l22 68 54 2 c35 1 56 6 59 14 2 7 6 12 8 10 2 -2 66 -217 143
-478z m1501 301 c14 -10 31 -29 37 -42 14 -26 17 -97 5 -115 -8 -13 -119 -39
-180 -43 -7 -1 -10 -6 -6 -12 5 -8 1 -8 -13 0 -26 13 -53 70 -53 111 0 25 32
99 43 100 1 0 20 7 42 15 46 16 89 12 125 -14z m-634 -151 c15 -6 33 -18 40
-28 17 -21 18 -88 2 -98 -7 -5 -8 -3 -3 6 5 8 -1 7 -16 -3 -13 -9 -38 -17 -56
-17 -17 0 -35 -5 -38 -10 -5 -8 -12 -7 -22 2 -45 37 -34 115 20 142 38 19 39
19 73 6z m-2111 -35 c25 -24 32 -59 17 -82 -4 -7 -32 -19 -62 -27 -49 -12 -57
-12 -72 2 -11 9 -18 29 -18 53 0 71 85 105 135 54z m92 -270 c0 -8 -4 -12 -9
-9 -4 3 -8 9 -8 15 0 5 4 9 8 9 5 0 9 -7 9 -15z m104 -148 c-7 -7 -12 -5 -17
7 -4 11 -1 21 7 27 17 11 26 -18 10 -34z m39 -33 c-6 -14 -8 -30 -4 -35 8 -13
-6 -50 -16 -44 -5 3 -10 0 -12 -6 -2 -6 -11 12 -20 40 -18 58 -15 67 7 19 8
-18 14 -26 14 -18 -2 30 1 41 10 36 5 -3 11 3 14 14 3 11 8 20 11 20 3 0 1
-12 -4 -26z m2050 -65 c0 -5 -4 -9 -10 -9 -5 0 -10 7 -10 16 0 8 5 12 10 9 6
-3 10 -10 10 -16z m-2031 -62 c0 -21 -1 -21 -9 -2 -12 28 -12 37 0 30 6 -3 10
-16 9 -28z m1461 13 c0 -5 -2 -10 -4 -10 -3 0 -8 5 -11 10 -3 6 -1 10 4 10 6
0 11 -4 11 -10z m55 -60 c-7 -25 -14 -38 -14 -29 -1 18 20 82 25 77 2 -2 -3
-24 -11 -48z m415 -147 c-11 -17 -11 -17 -6 0 3 10 6 24 7 30 0 9 2 9 5 0 3
-7 0 -20 -6 -30z m-74 -38 c-7 -18 -26 -20 -26 -2 0 18 24 41 28 27 2 -6 1
-17 -2 -25z m-1791 15 c3 -5 1 -10 -4 -10 -6 0 -11 5 -11 10 0 6 2 10 4 10 3
0 8 -4 11 -10z m-508 -42 c-3 -8 -6 -5 -6 6 -1 11 2 17 5 13 3 -3 4 -12 1 -19z
m2350 -20 c-3 -8 -6 -5 -6 6 -1 11 2 17 5 13 3 -3 4 -12 1 -19z m-34 -18 c-3
-11 -9 -20 -14 -20 -5 0 -9 9 -9 20 0 11 6 20 14 20 9 0 12 -7 9 -20z m19 -37
c-3 -16 -7 -22 -10 -15 -4 13 4 42 11 42 2 0 2 -12 -1 -27z m-19 -78 l-7 -40
-8 35 c-8 40 -2 68 12 54 5 -5 6 -27 3 -49z m-65 33 c7 -7 12 -20 12 -30 0
-10 5 -18 10 -18 6 0 10 -6 10 -14 0 -8 5 -16 11 -18 7 -2 3 -47 -14 -138 -14
-74 -29 -166 -33 -205 -3 -38 -9 -74 -11 -78 -3 -5 -7 -43 -10 -85 -2 -43 -5
-82 -7 -88 -5 -12 -154 -50 -163 -40 -4 3 -2 6 4 6 5 0 10 22 12 50 1 27 8 75
16 105 8 31 15 70 15 86 0 17 6 51 14 77 8 26 20 74 27 107 7 33 19 69 26 80
7 11 13 42 14 70 0 27 3 44 6 38 9 -23 23 -13 23 16 0 39 11 91 19 91 4 0 12
-5 19 -12z m-2023 -858 c39 -10 66 -19 60 -19 -6 -1 -9 -77 -8 -211 l3 -210
-23 1 c-12 0 -49 8 -82 17 l-60 17 -2 218 -2 217 22 -5 c12 -3 54 -14 92 -25z
m1995 -189 l0 -220 -57 -11 c-32 -6 -69 -14 -83 -17 -20 -4 -22 -2 -10 6 8 6
16 15 16 21 1 5 3 13 4 18 1 4 2 93 1 198 l-1 190 58 16 c31 8 60 16 65 17 4
0 7 -98 7 -218z m-703 -95 c0 -111 3 -208 6 -213 8 -13 -160 -23 -372 -22
-152 1 -370 13 -311 18 22 1 23 3 8 12 -9 5 -15 15 -12 22 9 25 9 377 -1 381
-5 3 146 5 336 5 l347 1 -1 -204z"/>
<path d="M2380 3736 c0 -9 5 -16 10 -16 6 0 10 4 10 9 0 6 -4 13 -10 16 -5 3
-10 -1 -10 -9z"/>
<path d="M3938 3163 c-2 -5 -1 -24 3 -43 l6 -35 2 43 c1 39 -3 52 -11 35z"/>
<path d="M4300 2825 c0 -8 5 -15 10 -15 6 0 10 7 10 15 0 8 -4 15 -10 15 -5 0
-10 -7 -10 -15z"/>
<path d="M4291 2694 c0 -11 3 -14 6 -6 3 7 2 16 -1 19 -3 4 -6 -2 -5 -13z"/>
</g>
</svg>
